<?xml version="1.0" encoding="utf-8"?>
<!-- Generator: Adobe Illustrator 19.2.0, SVG Export Plug-In . SVG Version: 6.00 Build 0)  -->
<svg version="1.1" id="Layer_1" xmlns:sketch="http://www.bohemiancoding.com/sketch/ns"
	 xmlns="http://www.w3.org/2000/svg" xmlns:xlink="http://www.w3.org/1999/xlink" x="0px" y="0px" width="10px" height="16px"
	 viewBox="0 0 10 16" style="enable-background:new 0 0 10 16;" xml:space="preserve">
<style type="text/css">
	.st0{fill:#F4364C;}
</style>
<title>Fill 1 Copy 3</title>
<desc>Created with Sketch.</desc>
<g id="Prototype-1440x900" sketch:type="MSPage">
	<g id="Investor-LP" transform="translate(-1257.000000, -605.000000)" sketch:type="MSArtboardGroup">
		
			<g id="Rectangle-105-Copy-2-_x2B_-Stock-Information-_x2B_-Fill-1-Copy-3" transform="translate(1072.000000, 587.000000)" sketch:type="MSLayerGroup">
			<path id="Fill-1-Copy-3" sketch:type="MSShapeGroup" class="st0" d="M187.5,33.4L187.5,33.4l0.1-0.1l5.8-5.8l0,0l1.1-1.1l0,0
				c0.1-0.1,0.1-0.2,0.2-0.4l0,0l0,0l0,0l0,0l0,0l0,0c0-0.1-0.1-0.3-0.2-0.4l0,0l-1.1-1.1l0,0l-5.8-5.8l-0.1-0.1l0,0
				c-0.3-0.3-0.8-0.3-1.2,0l-0.8,0.8c-0.3,0.3-0.3,0.8,0,1.2l0,0l5.1,5c0.1,0.1,0.1,0.1,0.1,0.2c0.1,0.2,0.1,0.3,0,0.5l0,0
				c0,0.1-0.1,0.1-0.1,0.2l-5,5c-0.3,0.3-0.3,0.8,0,1.2l0.8,0.8C186.7,33.7,187.2,33.7,187.5,33.4"/>
		</g>
	</g>
</g>
</svg>
