<?xml version="1.0" encoding="UTF-8" standalone="no"?>
<svg width="85px" height="47px" viewBox="0 0 85 47" version="1.1" xmlns="http://www.w3.org/2000/svg" xmlns:xlink="http://www.w3.org/1999/xlink" xmlns:sketch="http://www.bohemiancoding.com/sketch/ns">
    <!-- Generator: Sketch 3.4.3 (16618) - http://www.bohemiancoding.com/sketch -->
    <title>Lockup</title>
    <desc>Created with Sketch.</desc>
    <defs></defs>
    <g id="Prototype-1440x900" stroke="none" stroke-width="1" fill="none" fill-rule="evenodd" sketch:type="MSPage">
        <g id="Home" sketch:type="MSArtboardGroup" transform="translate(-678.000000, -2885.000000)">
            <g id="Lockup" sketch:type="MSLayerGroup" transform="translate(678.000000, 2885.000000)">
                <path d="M60.1972861,17.5763241 L60.1991089,17.5738937 L59.9384506,17.3065519 L46.1861468,3.44791899 L46.1861468,3.44731139 L43.530957,0.764779747 L43.5303494,0.764172152 C43.2927797,0.524172152 42.9847291,0.408121519 42.6718177,0.382602532 L42.6213873,0.381994937 C42.618957,0.381994937 42.6165266,0.381387342 42.6147038,0.381387342 L42.5399696,0.381994937 L42.465843,0.381387342 C42.4628051,0.381387342 42.4609823,0.381994937 42.4591595,0.381994937 L42.4081215,0.382602532 C42.0952101,0.408121519 41.7871595,0.524172152 41.5489823,0.764172152 L41.5489823,0.764779747 L38.8937924,3.44731139 L38.8937924,3.44791899 L25.0825519,17.3660962 L24.8212861,17.633438 L24.8231089,17.6364759 C24.0709063,18.3965772 24.0709063,19.6403241 24.8231089,20.4016405 L26.6422481,22.2402228 C27.4102481,23.0167291 28.667362,23.0167291 29.435362,22.2402228 L29.4347544,22.2390076 L41.4280709,10.1545519 C41.5757165,10.0056911 41.7507038,9.88842532 41.943919,9.81004557 C42.324881,9.65450127 42.7520203,9.65753924 43.1305519,9.81672911 L43.1706532,9.83495696 C43.3577924,9.91333671 43.5260962,10.0275646 43.6676658,10.170957 L55.5856405,22.1800709 C56.3530329,22.9559696 57.6101468,22.9559696 58.3787544,22.1800709 L60.1972861,20.3420962 C60.9494886,19.5813873 60.9494886,18.3364253 60.1972861,17.5763241" id="Fill-1" fill="#F4364C" sketch:type="MSShapeGroup"></path>
                <path d="M17.3541266,25.3486785 C18.1227342,24.5727797 19.3798481,24.5727797 20.1478481,25.3486785 L21.9675949,27.1872608 C22.7204051,27.9485772 22.7204051,29.1935392 21.9675949,29.9542481 L5.78551899,46.2687797 C5.01691139,47.0446785 3.75979747,47.0446785 2.99179747,46.2687797 L1.17144304,44.4295899 C0.419240506,43.668881 0.419240506,42.423919 1.17144304,41.6632101 L17.3541266,25.3486785 Z" id="Fill-4" fill="#0072CE" sketch:type="MSShapeGroup"></path>
                <path d="M83.8406886,41.6629671 C84.5934987,42.4242835 84.5934987,43.668638 83.8406886,44.4299544 L82.0209418,46.2691443 C81.2523342,47.045043 79.9952203,47.045043 79.2272203,46.2691443 L63.0445367,29.9552203 C62.2917266,29.1939038 62.2917266,27.9483342 63.0445367,27.1876253 L64.8642835,25.349043 C65.6328911,24.5725367 66.8900051,24.5725367 67.6580051,25.349043 L83.8406886,41.6629671 Z" id="Fill-7" fill="#0072CE" sketch:type="MSShapeGroup"></path>
            </g>
        </g>
    </g>
</svg>