<?xml version="1.0" encoding="UTF-8" standalone="no"?>
<svg width="41px" height="24px" viewBox="0 0 41 24" version="1.1" xmlns="http://www.w3.org/2000/svg" xmlns:xlink="http://www.w3.org/1999/xlink" xmlns:sketch="http://www.bohemiancoding.com/sketch/ns">
    <!-- Generator: Sketch 3.4.4 (17249) - http://www.bohemiancoding.com/sketch -->
    <title>community-icon</title>
    <desc>Created with Sketch.</desc>
    <defs></defs>
    <g id="Patterns-and-Styles" stroke="none" stroke-width="1" fill="none" fill-rule="evenodd" sketch:type="MSPage">
        <g id="News-Modules" sketch:type="MSArtboardGroup" transform="translate(-402.000000, -117.000000)" fill="#FFFFFF">
            <g id="community-icon" sketch:type="MSLayerGroup" transform="translate(402.000000, 117.000000)">
                <path d="M7.50625,2.95 C4.925,2.95 2.825,5.05 2.825,7.63125 C2.825,8.9875 3.39375,10.25625 4.44375,11.175 C4.575,11.30625 4.6625,11.48125 4.61875,11.65625 C4.61875,11.83125 4.4875,11.9625 4.35625,12.05 C1.99375,13.23125 0.55,15.6375 0.55,18.2625 C0.55,19.75 3.56875,20.84375 7.55,20.84375 C11.53125,20.84375 14.55,19.75 14.55,18.2625 C14.55,15.6375 13.10625,13.23125 10.74375,12.05 C10.56875,11.9625 10.48125,11.83125 10.48125,11.65625 C10.48125,11.48125 10.525,11.30625 10.65625,11.175 C11.6625,10.3 12.275,8.9875 12.275,7.63125 C12.1875,5.05 10.0875,2.95 7.50625,2.95 L7.50625,2.95 L7.50625,2.95 Z" id="Path-Copy" opacity="0.4" sketch:type="MSShapeGroup"></path>
                <path d="M33.50625,2.95 C30.925,2.95 28.825,5.05 28.825,7.63125 C28.825,8.9875 29.39375,10.25625 30.44375,11.175 C30.575,11.30625 30.6625,11.48125 30.61875,11.65625 C30.61875,11.83125 30.4875,11.9625 30.35625,12.05 C27.99375,13.23125 26.55,15.6375 26.55,18.2625 C26.55,19.75 29.56875,20.84375 33.55,20.84375 C37.53125,20.84375 40.55,19.75 40.55,18.2625 C40.55,15.6375 39.10625,13.23125 36.74375,12.05 C36.56875,11.9625 36.48125,11.83125 36.48125,11.65625 C36.48125,11.48125 36.525,11.30625 36.65625,11.175 C37.6625,10.3 38.275,8.9875 38.275,7.63125 C38.1875,5.05 36.0875,2.95 33.50625,2.95 L33.50625,2.95 L33.50625,2.95 Z" id="Path-Copy-2" opacity="0.4" sketch:type="MSShapeGroup"></path>
                <path d="M20.49375,0.95 C17.175,0.95 14.475,3.65 14.475,6.96875 C14.475,8.7125 15.20625,10.34375 16.55625,11.525 C16.725,11.69375 16.8375,11.91875 16.78125,12.14375 C16.78125,12.36875 16.6125,12.5375 16.44375,12.65 C13.40625,14.16875 11.55,17.2625 11.55,20.6375 C11.55,22.55 15.43125,23.95625 20.55,23.95625 C25.66875,23.95625 29.55,22.55 29.55,20.6375 C29.55,17.2625 27.69375,14.16875 24.65625,12.65 C24.43125,12.5375 24.31875,12.36875 24.31875,12.14375 C24.31875,11.91875 24.375,11.69375 24.54375,11.525 C25.8375,10.4 26.625,8.7125 26.625,6.96875 C26.5125,3.65 23.8125,0.95 20.49375,0.95 L20.49375,0.95 L20.49375,0.95 Z" id="Path" sketch:type="MSShapeGroup"></path>
            </g>
        </g>
    </g>
</svg>