<?xml version="1.0" encoding="UTF-8" standalone="no"?>
<svg width="44px" height="24px" viewBox="0 0 44 24" version="1.1" xmlns="http://www.w3.org/2000/svg" xmlns:xlink="http://www.w3.org/1999/xlink" xmlns:sketch="http://www.bohemiancoding.com/sketch/ns">
    <!-- Generator: Sketch 3.4.4 (17249) - http://www.bohemiancoding.com/sketch -->
    <title>Fill 1 + Fill 4 + Fill 7 Copy 2</title>
    <desc>Created with Sketch.</desc>
    <defs></defs>
    <g id="Investors" stroke="none" stroke-width="1" fill="none" fill-rule="evenodd" sketch:type="MSPage">
        <g id="Investors-LP" sketch:type="MSArtboardGroup" transform="translate(-454.000000, -776.000000)" fill="#FFFFFF">
            <g id="Group" sketch:type="MSLayerGroup" transform="translate(430.000000, 745.000000)">
                <g id="Fill-1-+-Fill-4-+-Fill-7-Copy-2" transform="translate(24.000000, 31.000000)" sketch:type="MSShapeGroup">
                    <path d="M30.7063518,8.42843412 L30.7073006,8.42724282 L30.5716247,8.29620003 L23.4133778,1.50312039 L23.4133778,1.50282256 L22.0313181,0.187927277 L22.0310019,0.187629452 C21.9073439,0.0699887639 21.7469997,0.0131042792 21.5841254,0.000595649054 L21.5578757,0.000297824527 C21.5566107,0.000297824527 21.5553456,0 21.5543969,0 L21.5154968,0.000297824527 L21.476913,0 C21.4753317,0 21.4743829,0.000297824527 21.4734341,0.000297824527 L21.4468682,0.000595649054 C21.2839939,0.0131042792 21.1236496,0.0699887639 20.9996754,0.187629452 L20.9996754,0.187927277 L19.6176157,1.50282256 L19.6176157,1.50312039 L12.4286915,8.32538683 L12.2926994,8.45642963 L12.2936482,8.45791875 C11.9021173,8.83049723 11.9021173,9.44014404 12.2936482,9.81331817 L13.240533,10.7145352 C13.6402866,11.0951549 14.2946302,11.0951549 14.6943839,10.7145352 L14.6940676,10.7139395 L20.9367395,4.79050752 C21.0135909,4.71754051 21.104674,4.66006038 21.2052449,4.62164101 C21.4035405,4.54539793 21.6258718,4.54688706 21.8229023,4.62491708 L21.8437755,4.63385182 C21.9411838,4.67227118 22.0287881,4.72826219 22.1024768,4.79854878 L28.3059324,10.6850506 C28.7053698,11.0653725 29.3597134,11.0653725 29.7597833,10.6850506 L30.7063518,9.78413137 C31.0978827,9.41125506 31.0978827,8.8010126 30.7063518,8.42843412" id="Fill-1"></path>
                    <path d="M8.40209507,13.289856 C8.78771503,12.9033813 9.41842468,12.9033813 9.80373981,13.289856 L10.7167294,14.2056525 C11.0944235,14.5848637 11.0944235,15.2049785 10.7167294,15.583887 L2.59798114,23.710144 C2.21236118,24.0966187 1.58165153,24.0966187 1.1963364,23.710144 L0.283042005,22.7940448 C-0.0943473351,22.4151363 -0.0943473351,21.7950215 0.283042005,21.416113 L8.40209507,13.289856 Z" id="Fill-4" opacity="0.4"></path>
                    <path d="M43.7167353,21.4158636 C44.0944216,21.795067 44.0944216,22.4148663 43.7167353,22.7940697 L42.8037647,23.71015 C42.4181527,24.0966167 41.7874562,24.0966167 41.4021491,23.71015 L33.2832647,15.5843633 C32.9055784,15.20516 32.9055784,14.5847554 33.2832647,14.2058546 L34.1962353,13.290077 C34.5818473,12.9033077 35.2125438,12.9033077 35.5978509,13.290077 L43.7167353,21.4158636 Z" id="Fill-7" opacity="0.4"></path>
                </g>
            </g>
        </g>
    </g>
</svg>