<?xml version="1.0" encoding="utf-8"?>
<!-- Generator: Adobe Illustrator 19.1.0, SVG Export Plug-In . SVG Version: 6.00 Build 0)  -->
<svg version="1.1" id="Layer_1" xmlns:sketch="http://www.bohemiancoding.com/sketch/ns"
	 xmlns="http://www.w3.org/2000/svg" xmlns:xlink="http://www.w3.org/1999/xlink" x="0px" y="0px" width="31px" height="31px"
	 viewBox="-24 24 31 31" style="enable-background:new -24 24 31 31;" xml:space="preserve">
<style type="text/css">
	.st0{fill:#FFFFFF;stroke:#0072CE;stroke-width:2;stroke-linecap:round;stroke-linejoin:round;}
	.st1{fill:#FFFFFF;}
</style>
<title>Rectangle 82 Copy + Rectangle 89 Copy + Rectangle 82 Copy 5</title>
<desc>Created with Sketch.</desc>
<g id="Round-1.3" sketch:type="MSPage">
	<g id="_x32_560-x-1440-copy-2" transform="translate(-1108.000000, -124.000000)" sketch:type="MSArtboardGroup">
		<g id="Group" transform="translate(461.000000, 85.000000)" sketch:type="MSLayerGroup">
			
				<g id="Rectangle-82-Copy-_x2B_-Rectangle-89-Copy-_x2B_-Rectangle-82-Copy-5" transform="translate(648.000000, 39.000000)" sketch:type="MSShapeGroup">
				<path id="Rectangle-82-Copy" class="st0" d="M-21,30H2c1.1,0,2,0.9,2,2v16c0,1.1-0.9,2-2,2h-23c-1.1,0-2-0.9-2-2V32
					C-23,30.9-22.1,30-21,30z"/>
				<rect id="Rectangle-89-Copy" x="-22" y="28" class="st1" width="25" height="9"/>
				<path id="Rectangle-82-Copy-5" class="st0" d="M-21.5,31.4c-0.8-0.8-0.5-1.4,0.6-1.4H1c1.1,0,1.4,0.6,0.6,1.4L-9.1,41.6
					c-0.8,0.8-2.1,0.7-2.8,0L-21.5,31.4z"/>
			</g>
		</g>
	</g>
</g>
</svg>
