<?xml version="1.0" encoding="utf-8"?>
<!-- Generator: Adobe Illustrator 19.1.0, SVG Export Plug-In . SVG Version: 6.00 Build 0)  -->
<svg version="1.1" id="Layer_1" xmlns:sketch="http://www.bohemiancoding.com/sketch/ns"
	 xmlns="http://www.w3.org/2000/svg" xmlns:xlink="http://www.w3.org/1999/xlink" x="0px" y="0px" width="19px" height="19px"
	 viewBox="-27.5 18 19 19" style="enable-background:new -27.5 18 19 19;" xml:space="preserve">
<style type="text/css">
	.st0{fill:#FFFFFF;}
</style>
<title>Shape</title>
<desc>Created with Sketch.</desc>
<g id="Investors" sketch:type="MSPage">
	<g id="Investors-LP" transform="translate(-872.000000, -683.000000)" sketch:type="MSArtboardGroup">
		<g id="Group" transform="translate(857.000000, 673.000000)" sketch:type="MSLayerGroup">
			<path id="Shape" sketch:type="MSShapeGroup" class="st0" d="M-4.4,29.9c0.7-0.6,1.6-0.8,2.5-0.9c0.9,0,1.9,0,2.8,0c0,1,0,2,0,3
				c-0.6,0-1.2,0-1.8,0c-0.4,0-0.8,0.3-0.9,0.7c0,0.7,0,1.3,0,2c0.9,0,1.8,0,2.7,0c-0.1,1-0.2,1.9-0.3,2.9c-0.8,0-1.6,0-2.4,0
				c0,2.8,0,5.7,0,8.5c-1.2,0-2.4,0-3.5,0c0-2.8,0-5.7,0-8.5c-0.6,0-1.2,0-1.7,0c0-1,0-1.9,0-2.9c0.6,0,1.2,0,1.7,0
				c0-0.9,0-1.9,0-2.8C-5.2,31.1-4.9,30.4-4.4,29.9L-4.4,29.9z"/>
		</g>
	</g>
</g>
</svg>
