<?xml version="1.0" encoding="utf-8"?>
<!-- Generator: Adobe Illustrator 19.1.0, SVG Export Plug-In . SVG Version: 6.00 Build 0)  -->
<svg version="1.1" id="Layer_1" xmlns:sketch="http://www.bohemiancoding.com/sketch/ns"
	 xmlns="http://www.w3.org/2000/svg" xmlns:xlink="http://www.w3.org/1999/xlink" x="0px" y="0px" viewBox="-12 9.5 36 36"
	 style="enable-background:new -12 9.5 36 36;" xml:space="preserve">
<style type="text/css">
	.st0{fill:#0072CE;}
</style>
<title>Shape</title>
<desc>Created with Sketch.</desc>
<g id="Prototype-1440x900" sketch:type="MSPage">
	<g id="Home" transform="translate(-816.000000, -3019.000000)" sketch:type="MSArtboardGroup">
		<path id="Shape" sketch:type="MSShapeGroup" class="st0" d="M826.1,3057.7v-4.2c0-0.9-0.3-1.4-0.8-1.4c-0.3,0-0.6,0.1-0.9,0.4v6.1
			c0.3,0.3,0.6,0.4,0.9,0.4C825.8,3059.1,826.1,3058.6,826.1,3057.7L826.1,3057.7z M831,3054.4h1.8v-0.9c0-0.9-0.3-1.4-0.9-1.4
			c-0.6,0-0.9,0.5-0.9,1.4V3054.4L831,3054.4z M815.7,3047.2v1.9h-2.1v11.4h-2v-11.4h-2.1v-1.9H815.7L815.7,3047.2z M821.1,3050.6
			v9.9h-1.8v-1.1c-0.7,0.8-1.4,1.2-2,1.2c-0.6,0-1-0.3-1.1-0.8c-0.1-0.3-0.2-0.8-0.2-1.5v-7.8h1.8v7.3c0,0.4,0,0.7,0,0.7
			c0,0.3,0.2,0.4,0.4,0.4c0.4,0,0.7-0.3,1.1-0.8v-7.6H821.1L821.1,3050.6z M827.8,3053.6v4c0,0.9-0.1,1.6-0.2,2
			c-0.2,0.8-0.7,1.1-1.4,1.1c-0.6,0-1.2-0.4-1.8-1.1v1h-1.8v-13.3h1.8v4.4c0.6-0.7,1.2-1.1,1.8-1.1c0.7,0,1.2,0.4,1.4,1.1
			C827.8,3052,827.8,3052.7,827.8,3053.6L827.8,3053.6z M834.6,3057.1v0.2c0,0.5,0,0.9-0.1,1.2c-0.1,0.4-0.2,0.8-0.4,1.1
			c-0.5,0.7-1.2,1.1-2.1,1.1c-0.9,0-1.7-0.3-2.2-1c-0.4-0.5-0.6-1.3-0.6-2.3v-3.5c0-1.1,0.2-1.8,0.5-2.3c0.5-0.7,1.2-1,2.1-1
			c0.9,0,1.6,0.3,2.1,1c0.4,0.5,0.6,1.3,0.6,2.3v2.1H831v1.8c0,0.9,0.3,1.4,0.9,1.4c0.4,0,0.7-0.2,0.8-0.7c0,0,0-0.1,0-0.2
			c0-0.1,0-0.3,0-0.4v-0.6H834.6L834.6,3057.1z M822.5,3034.8v4.2c0,0.9-0.3,1.4-0.9,1.4s-0.9-0.5-0.9-1.4v-4.2
			c0-0.9,0.3-1.4,0.9-1.4S822.5,3033.9,822.5,3034.8L822.5,3034.8z M836.8,3054.1c0-3.2-0.2-5.5-0.5-7c-0.2-0.8-0.6-1.5-1.2-2
			c-0.6-0.5-1.3-0.8-2-0.9c-2.4-0.3-6.1-0.4-11.1-0.4c-4.9,0-8.6,0.1-11,0.4c-0.8,0.1-1.5,0.4-2.1,0.9c-0.6,0.5-1,1.2-1.1,2
			c-0.4,1.6-0.5,3.9-0.5,7c0,3.2,0.2,5.5,0.5,7c0.2,0.8,0.6,1.4,1.1,2c0.6,0.5,1.3,0.9,2,0.9c2.5,0.3,6.1,0.4,11.1,0.4
			s8.6-0.1,11.1-0.4c0.8-0.1,1.4-0.4,2-0.9c0.6-0.5,1-1.2,1.1-2C836.6,3059.7,836.8,3057.3,836.8,3054.1L836.8,3054.1z
			 M816.5,3036.5l2.4-8h-2l-1.4,5.3l-1.4-5.3H812l0.6,1.9c0,0,0.2,0.6,0.6,1.9c0.6,1.9,1,3.3,1.2,4.3v5.4h2V3036.5L816.5,3036.5z
			 M824.3,3038.7v-3.5c0-1-0.2-1.8-0.6-2.4c-0.5-0.7-1.2-1-2.1-1c-0.9,0-1.6,0.3-2.1,1c-0.4,0.5-0.6,1.3-0.6,2.4v3.5
			c0,1,0.2,1.8,0.6,2.4c0.5,0.7,1.2,1,2.1,1c0.9,0,1.6-0.3,2.1-1C824.1,3040.6,824.3,3039.8,824.3,3038.7L824.3,3038.7z M829.1,3042
			h1.8v-10h-1.8v7.7c-0.4,0.6-0.8,0.8-1.1,0.8c-0.3,0-0.4-0.1-0.4-0.4c0,0,0-0.3,0-0.7v-7.4h-1.8v7.9c0,0.7,0.1,1.2,0.2,1.5
			c0.2,0.5,0.6,0.7,1.2,0.7c0.6,0,1.3-0.4,2.1-1.2V3042L829.1,3042z"/>
	</g>
</g>
</svg>
