<?xml version="1.0" encoding="utf-8"?>
<!-- Generator: Adobe Illustrator 19.1.0, SVG Export Plug-In . SVG Version: 6.00 Build 0)  -->
<svg version="1.1" id="Layer_1" xmlns:sketch="http://www.bohemiancoding.com/sketch/ns"
	 xmlns="http://www.w3.org/2000/svg" xmlns:xlink="http://www.w3.org/1999/xlink" x="0px" y="0px" viewBox="-8 10 36 36"
	 style="enable-background:new -8 10 36 36;" xml:space="preserve">
<style type="text/css">
	.st0{fill:#0072CE;}
</style>
<title>Shape</title>
<desc>Created with Sketch.</desc>
<g id="Prototype-1440x900" sketch:type="MSPage">
	<g id="Home" transform="translate(-656.000000, -3028.000000)" sketch:type="MSArtboardGroup">
		<path id="Shape" sketch:type="MSShapeGroup" class="st0" d="M684,3047.6c-1.3,0.6-2.7,1-4.2,1.2c1.5-0.9,2.7-2.4,3.2-4.2
			c-1.4,0.9-3,1.5-4.7,1.8c-1.4-1.5-3.3-2.4-5.4-2.4c-4.1,0-7.4,3.4-7.4,7.6c0,0.6,0.1,1.2,0.2,1.7c-6.1-0.3-11.6-3.3-15.2-7.9
			c-0.6,1.1-1,2.4-1,3.8c0,2.6,1.3,4.9,3.3,6.3c-1.2,0-2.4-0.4-3.4-0.9v0.1c0,3.7,2.5,6.7,5.9,7.4c-0.6,0.2-1.3,0.3-1.9,0.3
			c-0.5,0-0.9,0-1.4-0.1c0.9,3,3.7,5.2,6.9,5.3c-2.5,2-5.7,3.2-9.2,3.2c-0.6,0-1.2,0-1.8-0.1c3.3,2.2,7.1,3.4,11.3,3.4
			c13.6,0,21-11.5,21-21.5c0-0.3,0-0.7,0-1C681.8,3050.4,683,3049.1,684,3047.6L684,3047.6z"/>
	</g>
</g>
</svg>
