<?xml version="1.0" encoding="utf-8"?>
<!-- Generator: Adobe Illustrator 19.1.0, SVG Export Plug-In . SVG Version: 6.00 Build 0)  -->
<svg version="1.1" id="Layer_1" xmlns:sketch="http://www.bohemiancoding.com/sketch/ns"
	 xmlns="http://www.w3.org/2000/svg" xmlns:xlink="http://www.w3.org/1999/xlink" x="0px" y="0px" viewBox="-28 10 36 36"
	 style="enable-background:new -28 10 36 36;" xml:space="preserve">
<style type="text/css">
	.st0{fill:#0072CE;}
</style>
<title>Shape</title>
<desc>Created with Sketch.</desc>
<g id="Prototype-1440x900" sketch:type="MSPage">
	<g id="Home" transform="translate(-594.000000, -3024.000000)" sketch:type="MSArtboardGroup">
		<path id="Shape" sketch:type="MSShapeGroup" class="st0" d="M581.3,3037.8c1.3-1.3,3.2-1.7,5-1.7c1.9,0,3.8,0,5.7,0c0,2,0,4,0,6
			c-1.2,0-2.5,0-3.7,0c-0.8,0-1.6,0.5-1.7,1.3c0,1.3,0,2.7,0,4c1.8,0,3.6,0,5.4,0c-0.1,1.9-0.4,3.8-0.7,5.7c-1.6,0-3.2,0-4.8,0
			c0,5.7,0,11.3,0,17c-2.4,0-4.7,0-7.1,0c0-5.7,0-11.3,0-17c-1.2,0-2.3,0-3.5,0c0-1.9,0-3.8,0-5.7c1.2,0,2.3,0,3.5,0
			c0-1.9,0-3.7,0-5.6C579.6,3040.2,580.2,3038.8,581.3,3037.8L581.3,3037.8z"/>
	</g>
</g>
</svg>
