<?xml version="1.0" encoding="utf-8"?>
<!-- Generator: Adobe Illustrator 19.1.0, SVG Export Plug-In . SVG Version: 6.00 Build 0)  -->
<svg version="1.1" id="Layer_1" xmlns:sketch="http://www.bohemiancoding.com/sketch/ns"
	 xmlns="http://www.w3.org/2000/svg" xmlns:xlink="http://www.w3.org/1999/xlink" x="0px" y="0px" viewBox="-12 9.5 36 36"
	 style="enable-background:new -12 9.5 36 36;" xml:space="preserve">
<style type="text/css">
	.st0{fill:#0072CE;}
</style>
<title>Shape</title>
<desc>Created with Sketch.</desc>
<g id="Prototype-1440x900" sketch:type="MSPage">
	<g id="Home" transform="translate(-738.000000, -3027.000000)" sketch:type="MSArtboardGroup">
		<path id="Shape" sketch:type="MSShapeGroup" class="st0" d="M728,3045.1c0-1,0.4-1.9,1.1-2.6c0.7-0.7,1.7-1,2.8-1
			c1.1,0,2,0.3,2.7,1c0.7,0.7,1.1,1.6,1.1,2.7c0,1-0.4,1.8-1.1,2.5c-0.7,0.7-1.7,1-2.8,1h0c-1.1,0-2-0.3-2.7-1
			C728.4,3047,728,3046.1,728,3045.1L728,3045.1z M728.4,3072.5v-20.9h6.9v20.9H728.4L728.4,3072.5z M739.1,3072.5h6.9v-11.7
			c0-0.7,0.1-1.3,0.2-1.7c0.3-0.7,0.7-1.3,1.3-1.8c0.6-0.5,1.3-0.7,2.2-0.7c2.3,0,3.5,1.6,3.5,4.7v11.2h6.9v-12c0-3.1-0.7-5.4-2.2-7
			c-1.4-1.6-3.3-2.4-5.7-2.4c-2.7,0-4.7,1.2-6.2,3.5v0.1h0l0-0.1v-3h-6.9c0,0.7,0.1,2.7,0.1,6.2
			C739.1,3061.3,739.1,3066.2,739.1,3072.5L739.1,3072.5z"/>
	</g>
</g>
</svg>
