<?xml version="1.0" encoding="UTF-8" standalone="no"?>
<svg width="36px" height="32px" viewBox="0 0 36 32" version="1.1" xmlns="http://www.w3.org/2000/svg" xmlns:xlink="http://www.w3.org/1999/xlink" xmlns:sketch="http://www.bohemiancoding.com/sketch/ns">
    <!-- Generator: Sketch 3.4.4 (17249) - http://www.bohemiancoding.com/sketch -->
    <title>investor-icon</title>
    <desc>Created with Sketch.</desc>
    <defs></defs>
    <g id="Patterns-and-Styles" stroke="none" stroke-width="1" fill="none" fill-rule="evenodd" sketch:type="MSPage">
        <g id="News-Modules" sketch:type="MSArtboardGroup" transform="translate(-715.000000, -114.000000)" fill="#FFFFFF">
            <g id="investor-icon" sketch:type="MSLayerGroup" transform="translate(715.000000, 114.000000)">
                <path d="M3,29 L3,0.992786407 C3,0.452362061 2.55275191,0 2.00104344,0 L0.998956561,0 C0.442660332,0 0,0.444485615 0,0.992786407 L0,31.0072136 C0,31.2774258 0.111812022,31.5256224 0.292587603,31.7062659 C0.475464481,31.889957 0.724938797,32 1.00041944,32 L34.9995806,32 C35.544827,32 36,31.5527519 36,31.0010434 L36,29.9989566 C36,29.4426603 35.552097,29 34.9995806,29 L3,29 L3,29 Z" id="Rectangle-145" opacity="0.4" sketch:type="MSShapeGroup"></path>
                <path d="M14.2361331,17.9398106 L25.6049396,14.6569232 L31.709279,6.35469395 C32.0375985,5.90816177 31.950163,5.28619275 31.4995392,4.95486478 L30.8449862,4.47359484 C30.4008306,4.14702272 29.7780757,4.24045055 29.4545694,4.68152832 L23.9271269,12.2178028 L12.5439004,15.5048542 L6.31853923,23.6658969 C5.98371059,24.1048355 6.06122635,24.726848 6.50593298,25.0660767 L7.15189092,25.5588227 C7.59021428,25.8931821 8.21584424,25.8108407 8.54871354,25.3756416 L14.2361331,17.9398106 Z" id="Shape" sketch:type="MSShapeGroup" transform="translate(19.009218, 15.209358) rotate(7.000000) translate(-19.009218, -15.209358) "></path>
            </g>
        </g>
    </g>
</svg>