<?xml version="1.0" encoding="utf-8"?>
<!-- Generator: Adobe Illustrator 19.1.0, SVG Export Plug-In . SVG Version: 6.00 Build 0)  -->
<svg version="1.1" id="Layer_1" xmlns:sketch="http://www.bohemiancoding.com/sketch/ns"
	 xmlns="http://www.w3.org/2000/svg" xmlns:xlink="http://www.w3.org/1999/xlink" x="0px" y="0px" width="19px" height="19px"
	 viewBox="-19.5 18 19 19" style="enable-background:new -19.5 18 19 19;" xml:space="preserve">
<style type="text/css">
	.st0{fill:#FFFFFF;}
</style>
<title>Shape</title>
<desc>Created with Sketch.</desc>
<g id="Investors" sketch:type="MSPage">
	<g id="Investors-LP" transform="translate(-968.000000, -683.000000)" sketch:type="MSArtboardGroup">
		<g id="Group" transform="translate(857.000000, 673.000000)" sketch:type="MSLayerGroup">
			<path id="Shape" sketch:type="MSShapeGroup" class="st0" d="M93,31.7c0-0.5,0.2-0.9,0.5-1.2c0.4-0.3,0.8-0.5,1.4-0.5
				c0.6,0,1,0.2,1.4,0.5c0.4,0.3,0.5,0.8,0.5,1.3c0,0.5-0.2,0.9-0.5,1.2c-0.4,0.3-0.8,0.5-1.4,0.5h0c-0.6,0-1-0.2-1.4-0.5
				C93.2,32.7,93,32.2,93,31.7L93,31.7z M93.2,45V34.9h3.4V45H93.2L93.2,45z M98.5,45h3.4v-5.7c0-0.4,0-0.6,0.1-0.8
				c0.1-0.3,0.4-0.6,0.7-0.9c0.3-0.2,0.7-0.4,1.1-0.4c1.2,0,1.7,0.8,1.7,2.3V45h3.4v-5.8c0-1.5-0.4-2.6-1.1-3.4
				c-0.7-0.8-1.7-1.2-2.9-1.2c-1.3,0-2.4,0.6-3.1,1.7v0h0l0,0v-1.4h-3.4c0,0.3,0,1.3,0,3S98.5,41.9,98.5,45L98.5,45z"/>
		</g>
	</g>
</g>
</svg>
