<svg width="10px" height="16px" viewBox="0 0 10 16" version="1.1" xmlns="http://www.w3.org/2000/svg" xmlns:xlink="http://www.w3.org/1999/xlink" xmlns:sketch="http://www.bohemiancoding.com/sketch/ns"> <g id="Prototype-1440x900" stroke="none" stroke-width="1" fill="none" fill-rule="evenodd" sketch:type="MSPage"> <g id="Investor-LP" sketch:type="MSArtboardGroup" transform="translate(-1257.000000, -605.000000)" fill="#0072CE"> <g id="Rectangle-105-Copy-2-+-Stock-Information-+-Fill-1-Copy-3" sketch:type="MSLayerGroup" transform="translate(1072.000000, 587.000000)"> <path d="M187.19752,33.0535645 L187.198538,33.054328 L187.31052,32.9451455 L193.115515,27.1846887 L193.115769,27.1846887 L194.239407,26.0725037 L194.239662,26.0722492 C194.340191,25.9727379 194.388801,25.8437041 194.399491,25.7126342 L194.399745,25.6915103 C194.399745,25.6904923 194.4,25.6894743 194.4,25.6887108 L194.399745,25.6574067 L194.4,25.6263572 C194.4,25.6250846 194.399745,25.6243211 194.399745,25.6235576 L194.399491,25.6021792 C194.388801,25.4711094 194.340191,25.3420755 194.239662,25.2423097 L194.239407,25.2423097 L193.115769,24.1301247 L193.115515,24.1301247 L187.285578,18.344981 L187.173596,18.235544 L187.172324,18.2363075 C186.853939,17.9212308 186.332968,17.9212308 186.014074,18.2363075 L185.243943,18.9982942 C184.918686,19.319988 184.918686,19.846558 185.243943,20.1682518 L185.244452,20.1679973 L190.306293,25.1916633 C190.368647,25.2535079 190.417766,25.3268053 190.450597,25.4077377 C190.515751,25.5673121 190.514478,25.7462288 190.447798,25.9047852 L190.440163,25.9215825 C190.407332,25.9999699 190.359485,26.0704677 190.299422,26.1297672 L185.269139,31.1218747 C184.944136,31.443314 184.944136,31.969884 185.269139,32.2918323 L186.039015,33.0535645 C186.357655,33.3686412 186.879135,33.3686412 187.19752,33.0535645" id="Fill-1-Copy-3" sketch:type="MSShapeGroup"></path></g></g></g></svg>