<?xml version="1.0" encoding="UTF-8" standalone="no"?>
<svg width="20px" height="20px" viewBox="0 0 20 20" version="1.1" xmlns="http://www.w3.org/2000/svg" xmlns:xlink="http://www.w3.org/1999/xlink" xmlns:sketch="http://www.bohemiancoding.com/sketch/ns">
    <!-- Generator: Sketch 3.4.4 (17249) - http://www.bohemiancoding.com/sketch -->
    <title>pinterest--white</title>
    <desc>Created with Sketch.</desc>
    <defs></defs>
    <g id="Patterns-and-Styles" stroke="none" stroke-width="1" fill="none" fill-rule="evenodd" sketch:type="MSPage">
        <g id="pinterest--white" sketch:type="MSArtboardGroup" fill="#FFFFFF">
            <g sketch:type="MSLayerGroup" transform="translate(2.000000, 0.000000)" id="Shape">
                <path d="M6.9710896,0.0673196109 C3.55484289,0.437959629 0.14947947,3.12631049 0.00729398557,6.96659413 C-0.0802341213,9.31209321 0.604569402,11.0727114 2.89863309,11.5669046 C3.89385116,9.85778155 2.57815854,9.4822986 2.37288213,8.24446249 C1.53161635,3.17948503 8.38105717,-0.276254703 11.9647097,3.26042828 C14.4455562,5.70995262 12.8117785,13.2424006 8.81172999,12.4602095 C4.97989043,11.7116651 10.687731,5.71479555 7.62894595,4.53757411 C5.14219593,3.58031522 3.8223267,7.46398991 5.00005061,9.39393474 C4.30940385,12.7121588 2.82124531,15.8374275 3.42358085,20 C5.37779292,18.6206841 6.03645247,15.9813678 6.57652037,13.2276179 C7.55830501,13.8076168 8.08325277,14.4106196 9.33581432,14.5054863 C13.9559088,14.8524585 16.5368334,10.0206249 15.9059041,5.56183331 C15.3464993,1.60869779 11.2917131,-0.403049521 6.9710896,0.0673196109 L6.9710896,0.0673196109 Z" sketch:type="MSShapeGroup"></path>
            </g>
        </g>
    </g>
</svg>