<?xml version="1.0" encoding="UTF-8" standalone="no"?>
<svg width="36px" height="36px" viewBox="0 0 36 36" version="1.1" xmlns="http://www.w3.org/2000/svg" xmlns:xlink="http://www.w3.org/1999/xlink" xmlns:sketch="http://www.bohemiancoding.com/sketch/ns">
    <!-- Generator: Sketch 3.4.4 (17249) - http://www.bohemiancoding.com/sketch -->
    <title>press-release-icon</title>
    <desc>Created with Sketch.</desc>
    <defs></defs>
    <g id="Patterns-and-Styles" stroke="none" stroke-width="1" fill="none" fill-rule="evenodd" sketch:type="MSPage">
        <g id="News-Modules" sketch:type="MSArtboardGroup" transform="translate(-1043.000000, -111.000000)" fill="#FFFFFF">
            <g id="press-release-icon" sketch:type="MSLayerGroup" transform="translate(1043.000000, 111.000000)">
                <path d="M18,36 C19.7923442,36 21.5235028,35.7380333 23.1572758,35.2502999 C23.4467541,35.1638814 23.733175,35.0703751 24.0163373,34.9699824 C30.9989562,32.4943571 36,25.8312067 36,18 C36,8.0588745 27.9411255,0 18,0 C8.0588745,0 0,8.0588745 0,18 C0,27.9411255 8.0588745,36 18,36 Z" id="Oval-5" opacity="0.4" sketch:type="MSShapeGroup"></path>
                <path d="M8.04559335,3.0065918 C8.04559335,3.0065918 10.9102783,3.78076172 11.6013184,3.78076172 C12.2923584,3.78076172 13.171875,3.15478516 13.5289307,3.15478516 C13.8859863,3.15478516 16.5222168,3.90283203 16.5222168,3.90283203 C16.5222168,3.90283203 22.3133545,3.61791992 22.5386963,3.76037598 C22.7640381,3.90283203 22.6337891,5.23864746 22.6337891,5.44091797 C22.6337891,5.64318848 20.1169434,5.54956055 20.1169434,5.84143066 C20.1169434,6.13330078 19.9975586,7.20568848 19.9975586,7.20568848 C19.9975586,7.20568848 21.2111816,9.19995117 22.3378906,9.39538574 C23.4645996,9.59082031 23.8555908,6.66271973 23.8555908,6.66271973 C23.8555908,6.66271973 26.2098389,7.99841309 26.2098389,8.37316895 C26.2098389,8.7479248 28.4836426,12.2000732 28.2908936,12.4240723 C28.0981445,12.6480713 24.7438965,14.3652344 24.7438965,14.3652344 L22.6954346,17.0557861 C22.6954346,17.0557861 22.9873047,18.5218506 22.598999,18.5218506 C22.2106934,18.5218506 21.3323975,16.8168945 21.3323975,16.8168945 C21.3323975,16.8168945 18.9420776,16.708374 18.6488037,17.1630859 C18.3555298,17.6177979 18.1518555,18.7648926 18.1518555,18.7648926 L18.5102539,19.7735596 L19.4523926,19.4042969 L20.696167,19.6418457 L20.7924805,21.0578613 L21.1481934,21.0904541 L21.7672119,22.479126 L22.8071289,22.6745605 C22.8071289,22.6745605 22.8419189,21.8967285 23.3487549,21.8967285 C23.8555908,21.8967285 27.1676025,21.8125 27.1676025,21.8125 L28.71521,24.1337891 L29.0083008,25.2700195 C29.0083008,25.2700195 30.4431152,25.2823486 30.4431152,25.7574463 C30.4431152,26.2325439 29.4263916,29.4660645 29.4263916,29.4660645 L28.0755615,30.147583 L26.0882568,32.9561768 C26.0882568,32.9561768 24.3852542,34.857666 23.0762332,35.2557373 C21.7672122,35.6538086 21.1481937,35.7193604 21.1481937,35.7193604 L23.9437256,29.7858887 C23.9437256,29.7858887 22.6949463,29.1763916 22.4343262,28.5709229 C22.1737061,27.9654541 21.4908447,24.9992676 21.4908447,24.9992676 L22.503418,23.7694092 L20.9179688,23.4718018 C20.9179688,23.4718018 20.2770996,22.0588379 20.1373291,21.8551025 C19.9975586,21.6513672 15.3522949,20.0148926 15.3522949,19.8283691 C15.3522949,19.6418457 12.5775146,14.2875977 12.3820801,13.355835 C12.1866455,12.4240723 12.5450439,10.0992432 12.5450439,10.0992432 L10.484375,7.21325684 C10.484375,7.21325684 8.95568848,6.8548584 8.46972656,6.8548584 C7.98376465,6.8548584 6.21362305,9.10095215 5.85791016,9.24816895 C5.50219727,9.39538574 6.50549316,7.38439941 6.50549316,7.38439941 C6.50549316,7.38439941 5.92016601,6.31091309 5.64050293,6.48681641 C5.36083985,6.66271973 6.52563477,5.41699219 6.52563477,5.41699219 L6.96093747,3.76037598 L8.04559335,3.0065918 Z" id="Path-207" sketch:type="MSShapeGroup"></path>
            </g>
        </g>
    </g>
</svg>