<?xml version="1.0" encoding="utf-8"?>
<!-- Generator: Adobe Illustrator 19.1.0, SVG Export Plug-In . SVG Version: 6.00 Build 0)  -->
<svg version="1.1" id="Layer_1" xmlns:sketch="http://www.bohemiancoding.com/sketch/ns"
	 xmlns="http://www.w3.org/2000/svg" xmlns:xlink="http://www.w3.org/1999/xlink" x="0px" y="0px" width="31px" height="31px"
	 viewBox="-36 39.5 31 31" style="enable-background:new -36 39.5 31 31;" xml:space="preserve">
<style type="text/css">
	.st0{fill:#FFFFFF;stroke:#0072CE;stroke-width:2;stroke-linecap:round;stroke-linejoin:round;}
	.st1{fill:#0072CE;}
</style>
<title>Group</title>
<desc>Created with Sketch.</desc>
<g id="Round-1.3" sketch:type="MSPage">
	<g id="_x32_560-x-1440-copy-2" transform="translate(-1108.000000, -205.000000)" sketch:type="MSArtboardGroup">
		<g id="Group" transform="translate(461.000000, 85.000000)" sketch:type="MSLayerGroup">
			<g transform="translate(648.000000, 121.000000)" sketch:type="MSShapeGroup">
				<path id="Rectangle-82-Copy-4" class="st0" d="M-29,42h16c1.1,0,2,0.9,2,2v7c0,1.1-0.9,2-2,2h-16c-1.1,0-2-0.9-2-2v-7
					C-31,42.9-30.1,42-29,42z"/>
				<path id="Rectangle-82-Copy-2" class="st0" d="M-33,47h23c1.1,0,2,0.9,2,2v10c0,1.1-0.9,2-2,2h-23c-1.1,0-2-0.9-2-2V49
					C-35,47.9-34.1,47-33,47z"/>
				<path id="Rectangle-82-Copy-3" class="st0" d="M-29,55h16c1.1,0,2,0.9,2,2v7c0,1.1-0.9,2-2,2h-16c-1.1,0-2-0.9-2-2v-7
					C-31,55.9-30.1,55-29,55z"/>
				<path id="Rectangle-91" class="st1" d="M-13,50L-13,50c0.6,0,1,0.4,1,1l0,0c0,0.6-0.4,1-1,1l0,0c-0.6,0-1-0.4-1-1l0,0
					C-14,50.4-13.6,50-13,50z"/>
			</g>
		</g>
	</g>
</g>
</svg>
