<?xml version="1.0" encoding="utf-8"?>
<!-- Generator: Adobe Illustrator 19.1.0, SVG Export Plug-In . SVG Version: 6.00 Build 0)  -->
<svg version="1.1" id="Layer_1" xmlns:sketch="http://www.bohemiancoding.com/sketch/ns"
	 xmlns="http://www.w3.org/2000/svg" xmlns:xlink="http://www.w3.org/1999/xlink" x="0px" y="0px" width="19px" height="19px"
	 viewBox="-19 18.5 19 19" style="enable-background:new -19 18.5 19 19;" xml:space="preserve">
<style type="text/css">
	.st0{fill:#FFFFFF;}
</style>
<title>Shape</title>
<desc>Created with Sketch.</desc>
<g id="Investors" sketch:type="MSPage">
	<g id="Investors-LP" transform="translate(-918.000000, -685.000000)" sketch:type="MSArtboardGroup">
		<g id="Group" transform="translate(857.000000, 673.000000)" sketch:type="MSLayerGroup">
			<path id="Shape" sketch:type="MSShapeGroup" class="st0" d="M60,34.7c-0.6,0.3-1.3,0.5-2,0.6c0.7-0.4,1.3-1.1,1.5-2
				c-0.7,0.4-1.4,0.7-2.2,0.9c-0.6-0.7-1.5-1.1-2.5-1.1c-1.9,0-3.5,1.6-3.5,3.5c0,0.3,0,0.5,0.1,0.8c-2.9-0.1-5.5-1.6-7.2-3.7
				c-0.3,0.5-0.5,1.1-0.5,1.8c0,1.2,0.6,2.3,1.6,2.9c-0.6,0-1.1-0.2-1.6-0.4v0c0,1.7,1.2,3.1,2.8,3.5c-0.3,0.1-0.6,0.1-0.9,0.1
				c-0.2,0-0.4,0-0.7-0.1c0.4,1.4,1.7,2.4,3.3,2.5c-1.2,0.9-2.7,1.5-4.3,1.5c-0.3,0-0.6,0-0.8-0.1c1.5,1,3.4,1.6,5.3,1.6
				c6.4,0,9.9-5.4,9.9-10.1c0-0.2,0-0.3,0-0.5C58.9,36,59.5,35.4,60,34.7L60,34.7z"/>
		</g>
	</g>
</g>
</svg>
