<?xml version="1.0" encoding="utf-8"?>
<!-- Generator: Adobe Illustrator 19.1.0, SVG Export Plug-In . SVG Version: 6.00 Build 0)  -->
<svg version="1.1" id="Layer_1" xmlns:sketch="http://www.bohemiancoding.com/sketch/ns"
	 xmlns="http://www.w3.org/2000/svg" xmlns:xlink="http://www.w3.org/1999/xlink" x="0px" y="0px" width="31px" height="31px"
	 viewBox="-22.4 24 31 31" style="enable-background:new -22.4 24 31 31;" xml:space="preserve">
<style type="text/css">
	.st0{fill:none;stroke:#0072CE;stroke-width:2;stroke-linecap:round;stroke-linejoin:round;}
</style>
<title>Path 82</title>
<desc>Created with Sketch.</desc>
<g id="Round-1.3" sketch:type="MSPage">
	<g id="_x32_560-x-1440-copy-2" transform="translate(-1107.000000, -251.000000)" sketch:type="MSArtboardGroup">
		<g id="Group" transform="translate(461.000000, 85.000000)" sketch:type="MSLayerGroup">
			<path id="Path-82" sketch:type="MSShapeGroup" class="st0" d="M633.8,211.4c-1.2,1.2-4.4,2.6-7.8,2.3c2.5,1.6,5.2,2.2,7.8,2.3
				c5.9,0.3,11.4-3.2,13.7-7.6c2.3-4.4,1.9-6.6,1.9-8.2c0.8-0.3,2.7-2.3,2.7-2.7c-0.8,0.5-2.2,0.8-2.9,0.8c0.7-0.3,1.9-2,2.2-2.8
				c-1,0.5-2.6,1.1-3.3,1.2c-1.7-1.9-4.3-2.2-6.8-0.9s-2.8,4.1-2.4,5.7c-5.3,0-8.8-2.8-10.9-5.5c-2.1,2.6,0,6.2,1.5,7
				c-1.1,0-1.9-0.4-2.3-0.7c0.1,4.5,3.7,5.2,4.2,5.3c-0.9,0.4-2.3,0.2-2.3,0.2S629.7,211,633.8,211.4z"/>
		</g>
	</g>
</g>
</svg>
