<?xml version="1.0" encoding="utf-8"?>
<!-- Generator: Adobe Illustrator 19.1.0, SVG Export Plug-In . SVG Version: 6.00 Build 0)  -->
<svg version="1.1" id="Layer_1" xmlns:sketch="http://www.bohemiancoding.com/sketch/ns"
	 xmlns="http://www.w3.org/2000/svg" xmlns:xlink="http://www.w3.org/1999/xlink" x="0px" y="0px" width="19px" height="19px"
	 viewBox="-19.5 18 19 19" style="enable-background:new -19.5 18 19 19;" xml:space="preserve">
<style type="text/css">
	.st0{fill:#FFFFFF;}
</style>
<title>Shape</title>
<desc>Created with Sketch.</desc>
<g id="Investors" sketch:type="MSPage">
	<g id="Investors-LP" transform="translate(-1017.000000, -681.000000)" sketch:type="MSArtboardGroup">
		<g id="Group" transform="translate(857.000000, 673.000000)" sketch:type="MSLayerGroup">
			<path id="Shape" sketch:type="MSShapeGroup" class="st0" d="M152.2,41.4v-2.2c0-0.5-0.1-0.7-0.4-0.7c-0.2,0-0.3,0.1-0.5,0.2v3.2
				c0.2,0.2,0.3,0.2,0.5,0.2C152.1,42.1,152.2,41.9,152.2,41.4L152.2,41.4z M154.9,39.7h1v-0.5c0-0.5-0.2-0.7-0.5-0.7
				c-0.3,0-0.5,0.2-0.5,0.7V39.7L154.9,39.7z M146.6,35.9v1h-1.2v6h-1.1v-6h-1.1v-1H146.6L146.6,35.9z M149.5,37.7v5.2h-1v-0.6
				c-0.4,0.4-0.7,0.6-1.1,0.6c-0.3,0-0.5-0.1-0.6-0.4c-0.1-0.2-0.1-0.4-0.1-0.8v-4.1h1v3.9c0,0.2,0,0.4,0,0.4c0,0.1,0.1,0.2,0.2,0.2
				c0.2,0,0.4-0.1,0.6-0.4v-4H149.5L149.5,37.7z M153.2,39.3v2.1c0,0.5,0,0.8-0.1,1c-0.1,0.4-0.4,0.6-0.8,0.6c-0.3,0-0.7-0.2-1-0.6
				v0.5h-1v-7h1v2.3c0.3-0.4,0.6-0.6,1-0.6c0.4,0,0.7,0.2,0.8,0.6C153.1,38.4,153.2,38.8,153.2,39.3L153.2,39.3z M156.8,41.1v0.1
				c0,0.3,0,0.5,0,0.6c0,0.2-0.1,0.4-0.2,0.6c-0.3,0.4-0.6,0.6-1.2,0.6c-0.5,0-0.9-0.2-1.2-0.5c-0.2-0.3-0.3-0.7-0.3-1.2v-1.8
				c0-0.6,0.1-1,0.3-1.2c0.3-0.4,0.7-0.5,1.2-0.5c0.5,0,0.9,0.2,1.1,0.5c0.2,0.3,0.3,0.7,0.3,1.2v1.1h-1.9v0.9
				c0,0.5,0.2,0.7,0.5,0.7c0.2,0,0.4-0.1,0.4-0.4c0,0,0,0,0-0.1s0-0.1,0-0.2v-0.3H156.8L156.8,41.1z M150.2,29.3v2.2
				c0,0.5-0.2,0.7-0.5,0.7s-0.5-0.2-0.5-0.7v-2.2c0-0.5,0.2-0.7,0.5-0.7S150.2,28.8,150.2,29.3L150.2,29.3z M158,39.5
				c0-1.7-0.1-2.9-0.3-3.7c-0.1-0.4-0.3-0.8-0.6-1c-0.3-0.3-0.7-0.4-1.1-0.5c-1.3-0.1-3.3-0.2-6-0.2c-2.7,0-4.7,0.1-6,0.2
				c-0.4,0-0.8,0.2-1.1,0.5s-0.5,0.6-0.6,1c-0.2,0.8-0.3,2.1-0.3,3.7c0,1.7,0.1,2.9,0.3,3.7c0.1,0.4,0.3,0.8,0.6,1s0.7,0.5,1.1,0.5
				c1.3,0.1,3.3,0.2,6,0.2s4.7-0.1,6-0.2c0.4,0,0.8-0.2,1.1-0.5s0.5-0.6,0.6-1C157.9,42.4,158,41.2,158,39.5L158,39.5z M147,30.2
				l1.3-4.2h-1.1l-0.7,2.8l-0.8-2.8h-1.1l0.3,1c0,0,0.1,0.3,0.3,1c0.3,1,0.6,1.7,0.7,2.3v2.9h1.1V30.2L147,30.2z M151.2,31.4v-1.9
				c0-0.6-0.1-1-0.3-1.2c-0.3-0.4-0.7-0.5-1.1-0.5c-0.5,0-0.9,0.2-1.1,0.5c-0.2,0.3-0.3,0.7-0.3,1.2v1.9c0,0.6,0.1,1,0.3,1.2
				c0.3,0.4,0.6,0.5,1.1,0.5c0.5,0,0.9-0.2,1.1-0.5C151.1,32.4,151.2,32,151.2,31.4L151.2,31.4z M153.9,33.1h1v-5.3h-1v4
				c-0.2,0.3-0.4,0.4-0.6,0.4c-0.1,0-0.2-0.1-0.2-0.2c0,0,0-0.1,0-0.4v-3.9h-1V32c0,0.4,0,0.6,0.1,0.8c0.1,0.3,0.3,0.4,0.6,0.4
				c0.3,0,0.7-0.2,1.1-0.6V33.1L153.9,33.1z"/>
		</g>
	</g>
</g>
</svg>
